<svg id="visual" viewBox="0 0 900 600" width="900" height="600" xmlns="http://www.w3.org/2000/svg" xmlns:xlink="http://www.w3.org/1999/xlink" version="1.1"><rect x="0" y="0" width="900" height="600" fill="#101316"></rect><path d="M0 283L21.5 264.7C43 246.3 86 209.7 128.8 198.8C171.7 188 214.3 203 257.2 215.8C300 228.7 343 239.3 385.8 266.7C428.7 294 471.3 338 514.2 335.3C557 332.7 600 283.3 642.8 281.2C685.7 279 728.3 324 771.2 328.5C814 333 857 297 878.5 279L900 261L900 601L878.5 601C857 601 814 601 771.2 601C728.3 601 685.7 601 642.8 601C600 601 557 601 514.2 601C471.3 601 428.7 601 385.8 601C343 601 300 601 257.2 601C214.3 601 171.7 601 128.8 601C86 601 43 601 21.5 601L0 601Z" fill="#a6f3fe"></path><path d="M0 316L21.5 297.3C43 278.7 86 241.3 128.8 249.8C171.7 258.3 214.3 312.7 257.2 339.5C300 366.3 343 365.7 385.8 336.8C428.7 308 471.3 251 514.2 224.5C557 198 600 202 642.8 230.8C685.7 259.7 728.3 313.3 771.2 346.3C814 379.3 857 391.7 878.5 397.8L900 404L900 601L878.5 601C857 601 814 601 771.2 601C728.3 601 685.7 601 642.8 601C600 601 557 601 514.2 601C471.3 601 428.7 601 385.8 601C343 601 300 601 257.2 601C214.3 601 171.7 601 128.8 601C86 601 43 601 21.5 601L0 601Z" fill="#87daf9"></path><path d="M0 345L21.5 358.2C43 371.3 86 397.7 128.8 384.2C171.7 370.7 214.3 317.3 257.2 318.3C300 319.3 343 374.7 385.8 386.3C428.7 398 471.3 366 514.2 357C557 348 600 362 642.8 374C685.7 386 728.3 396 771.2 397.2C814 398.3 857 390.7 878.5 386.8L900 383L900 601L878.5 601C857 601 814 601 771.2 601C728.3 601 685.7 601 642.8 601C600 601 557 601 514.2 601C471.3 601 428.7 601 385.8 601C343 601 300 601 257.2 601C214.3 601 171.7 601 128.8 601C86 601 43 601 21.5 601L0 601Z" fill="#79bff2"></path><path d="M0 355L21.5 346.5C43 338 86 321 128.8 334.3C171.7 347.7 214.3 391.3 257.2 400C300 408.7 343 382.3 385.8 362C428.7 341.7 471.3 327.3 514.2 331C557 334.7 600 356.3 642.8 374.5C685.7 392.7 728.3 407.3 771.2 416.5C814 425.7 857 429.3 878.5 431.2L900 433L900 601L878.5 601C857 601 814 601 771.2 601C728.3 601 685.7 601 642.8 601C600 601 557 601 514.2 601C471.3 601 428.7 601 385.8 601C343 601 300 601 257.2 601C214.3 601 171.7 601 128.8 601C86 601 43 601 21.5 601L0 601Z" fill="#7ca2e4"></path><path d="M0 461L21.5 446C43 431 86 401 128.8 384.3C171.7 367.7 214.3 364.3 257.2 367.2C300 370 343 379 385.8 380.2C428.7 381.3 471.3 374.7 514.2 373.8C557 373 600 378 642.8 375.8C685.7 373.7 728.3 364.3 771.2 362.2C814 360 857 365 878.5 367.5L900 370L900 601L878.5 601C857 601 814 601 771.2 601C728.3 601 685.7 601 642.8 601C600 601 557 601 514.2 601C471.3 601 428.7 601 385.8 601C343 601 300 601 257.2 601C214.3 601 171.7 601 128.8 601C86 601 43 601 21.5 601L0 601Z" fill="#8b83cc"></path><path d="M0 436L21.5 437.5C43 439 86 442 128.8 453.7C171.7 465.3 214.3 485.7 257.2 494.7C300 503.7 343 501.3 385.8 503.3C428.7 505.3 471.3 511.7 514.2 496.3C557 481 600 444 642.8 443.3C685.7 442.7 728.3 478.3 771.2 480.5C814 482.7 857 451.3 878.5 435.7L900 420L900 601L878.5 601C857 601 814 601 771.2 601C728.3 601 685.7 601 642.8 601C600 601 557 601 514.2 601C471.3 601 428.7 601 385.8 601C343 601 300 601 257.2 601C214.3 601 171.7 601 128.8 601C86 601 43 601 21.5 601L0 601Z" fill="#9962a9"></path><path d="M0 482L21.5 488.7C43 495.3 86 508.7 128.8 507.8C171.7 507 214.3 492 257.2 485.8C300 479.7 343 482.3 385.8 494C428.7 505.7 471.3 526.3 514.2 531.8C557 537.3 600 527.7 642.8 521C685.7 514.3 728.3 510.7 771.2 505.2C814 499.7 857 492.3 878.5 488.7L900 485L900 601L878.5 601C857 601 814 601 771.2 601C728.3 601 685.7 601 642.8 601C600 601 557 601 514.2 601C471.3 601 428.7 601 385.8 601C343 601 300 601 257.2 601C214.3 601 171.7 601 128.8 601C86 601 43 601 21.5 601L0 601Z" fill="#9e3e7d"></path><path d="M0 504L21.5 508.8C43 513.7 86 523.3 128.8 524C171.7 524.7 214.3 516.3 257.2 523.2C300 530 343 552 385.8 560.7C428.7 569.3 471.3 564.7 514.2 559C557 553.3 600 546.7 642.8 537.3C685.7 528 728.3 516 771.2 510.8C814 505.7 857 507.3 878.5 508.2L900 509L900 601L878.5 601C857 601 814 601 771.2 601C728.3 601 685.7 601 642.8 601C600 601 557 601 514.2 601C471.3 601 428.7 601 385.8 601C343 601 300 601 257.2 601C214.3 601 171.7 601 128.8 601C86 601 43 601 21.5 601L0 601Z" fill="#97164c"></path></svg>